<svg id="Layer_1" data-name="Layer 1" xmlns="http://www.w3.org/2000/svg" viewBox="0 0 45.28 45.2"><defs><style>.cls-1{fill:#fff;}.cls-2{fill:#54cd4e;}</style></defs><title>ikona-social-01</title><rect class="cls-1" x="2.86" y="2.85" width="39.5" height="39.5" rx="12" ry="12"/><path class="cls-2" d="M50.21,59.74H24.58c-.26,0-.51-.11-.77-.14A9.82,9.82,0,0,1,17,56a10.93,10.93,0,0,1-2.23-7.13q0-11.17,0-22.34a27.67,27.67,0,0,1,.24-3.6,9.44,9.44,0,0,1,7.27-8c.68-.16,1.37-.27,2.06-.41H50.47c.25.06.51.13.76.17a9.58,9.58,0,0,1,7.63,5.43,12,12,0,0,1,1.06,5.3Q60,36.26,60,47.09a26.42,26.42,0,0,1-.25,4.12,9.33,9.33,0,0,1-7,8A25.84,25.84,0,0,1,50.21,59.74ZM26.63,51.63l.11.19a4.86,4.86,0,0,0,.68-.07,10.38,10.38,0,0,0,4-1.77,3.27,3.27,0,0,1,2.71-.59,18.74,18.74,0,0,0,13.25-2.53A12.88,12.88,0,0,0,53.6,38.6c1.15-5.33-.92-9.51-5.08-12.69-6.87-5.25-17.58-4.69-23.7,1.14-4.71,4.48-5.4,11.11-1.55,16.15a16.08,16.08,0,0,0,4.63,4c.85.51,1.05,1,.58,1.92a15.44,15.44,0,0,1-1.31,1.79Z" transform="translate(-14.73 -14.54)"/></svg>